<?xml version="1.0" encoding="UTF-8" standalone="no"?>
<!-- Created with Inkscape (http://www.inkscape.org/) -->

<svg
   xmlns:dc="http://purl.org/dc/elements/1.1/"
   xmlns:cc="http://creativecommons.org/ns#"
   xmlns:rdf="http://www.w3.org/1999/02/22-rdf-syntax-ns#"
   xmlns:svg="http://www.w3.org/2000/svg"
   xmlns="http://www.w3.org/2000/svg"
   xmlns:xlink="http://www.w3.org/1999/xlink"
   xmlns:sodipodi="http://sodipodi.sourceforge.net/DTD/sodipodi-0.dtd"
   xmlns:inkscape="http://www.inkscape.org/namespaces/inkscape"
   width="1920px"
   height="1080px"
   viewBox="0 0 1920 1080"
   version="1.1"
   id="SVGRoot"
   inkscape:version="0.92.4 (5da689c313, 2019-01-14)"
   sodipodi:docname="eyesMangasInkscape.svg">
  <defs
     id="defs1408">
    <linearGradient
       inkscape:collect="always"
       id="linearGradient3141">
      <stop
         style="stop-color:#ffffff;stop-opacity:1"
         offset="0"
         id="stop3137" />
      <stop
         style="stop-color:#f9f9f9;stop-opacity:1"
         offset="1"
         id="stop3139" />
    </linearGradient>
    <linearGradient
       inkscape:collect="always"
       id="linearGradient1978">
      <stop
         style="stop-color:#00ffff;stop-opacity:1"
         offset="0"
         id="stop1974" />
      <stop
         id="stop1982"
         offset="0.35783851"
         style="stop-color:#0000ff;stop-opacity:1" />
      <stop
         style="stop-color:#2b0000;stop-opacity:1"
         offset="1"
         id="stop1976" />
    </linearGradient>
    <radialGradient
       inkscape:collect="always"
       xlink:href="#linearGradient1978"
       id="radialGradient1980"
       cx="817.27533"
       cy="508.25119"
       fx="817.27533"
       fy="508.25119"
       r="194.28571"
       gradientUnits="userSpaceOnUse"
       gradientTransform="matrix(1.1880182,-0.08532961,0.08659251,1.2056011,-184.94868,-43.010424)" />
    <filter
       inkscape:collect="always"
       style="color-interpolation-filters:sRGB"
       id="filter2959"
       x="-0.83118748"
       width="2.662375"
       y="-0.80600002"
       height="2.612">
      <feGaussianBlur
         inkscape:collect="always"
         stdDeviation="17.166481"
         id="feGaussianBlur2961" />
    </filter>
    <filter
       inkscape:collect="always"
       style="color-interpolation-filters:sRGB"
       id="filter3133"
       x="-0.17911372"
       width="1.3582274"
       y="-0.30909065"
       height="1.6181813">
      <feGaussianBlur
         inkscape:collect="always"
         stdDeviation="6.6237466"
         id="feGaussianBlur3135" />
    </filter>
    <radialGradient
       inkscape:collect="always"
       xlink:href="#linearGradient3141"
       id="radialGradient3143"
       cx="867.83424"
       cy="597.85714"
       fx="867.83424"
       fy="597.85714"
       r="515.02286"
       gradientTransform="matrix(1,0,0,0.31205272,0,411.2942)"
       gradientUnits="userSpaceOnUse" />
  </defs>
  <sodipodi:namedview
     id="base"
     pagecolor="#ffffff"
     bordercolor="#666666"
     borderopacity="1.0"
     inkscape:pageopacity="0.0"
     inkscape:pageshadow="2"
     inkscape:zoom="0.49497475"
     inkscape:cx="621.12296"
     inkscape:cy="507.80268"
     inkscape:document-units="px"
     inkscape:current-layer="layer1"
     showgrid="false"
     inkscape:window-width="1920"
     inkscape:window-height="1017"
     inkscape:window-x="-8"
     inkscape:window-y="-8"
     inkscape:window-maximized="1" />
  <metadata
     id="metadata1411">
    <rdf:RDF>
      <cc:Work
         rdf:about="">
        <dc:format>image/svg+xml</dc:format>
        <dc:type
           rdf:resource="http://purl.org/dc/dcmitype/StillImage" />
        <dc:title></dc:title>
      </cc:Work>
    </rdf:RDF>
  </metadata>
  <g
     inkscape:label="Layer 1"
     inkscape:groupmode="layer"
     id="layer1">
    <rect
       style="fill:#ffccaa;fill-opacity:1;stroke:none;stroke-width:42.30607224;stroke-miterlimit:4;stroke-dasharray:none;stroke-opacity:1"
       id="rect2026-5"
       width="1931.2758"
       height="1087.6982"
       x="-0.049670637"
       y="-2.7560797"
       rx="3.5820541"
       ry="42.22266" />
    <ellipse
       style="fill:#ffffff;fill-opacity:1;stroke:none;stroke-width:10;stroke-miterlimit:4;stroke-dasharray:none;stroke-opacity:1"
       id="path1984-7"
       cx="935.71423"
       cy="425.71429"
       rx="45.714287"
       ry="47.142857" />
    <path
       style="fill:url(#radialGradient3143);stroke:none;stroke-width:1px;stroke-linecap:butt;stroke-linejoin:miter;stroke-opacity:1;fill-opacity:1"
       d="m 352.85714,575.71428 94.28572,-129.99999 935.71424,-8.57143 c 0,0 -199.2184,312.13714 -531.42853,321.42857 0,0 -151.39286,-9.90146 -275.64162,-49.29741 C 451.53819,669.87807 450.48722,669.97835 400,662.85714 349.51278,655.73593 352.85714,575.71428 352.85714,575.71428 Z"
       id="path2043"
       inkscape:connector-curvature="0" />
    <path
       style="fill:none;stroke:#000000;stroke-width:1px;stroke-linecap:butt;stroke-linejoin:miter;stroke-opacity:1"
       d="m 321.42858,620 125.71428,-174.28571 935.71424,-8.57143 c 0,0 -238.5935,346.00816 -581.42853,319.99999 C 673.18332,747.41391 554.15197,702.16303 478.8177,677.80962 432.4714,662.82719 400,662.85714 400,662.85714 c 0,0 -39.46871,-3.53179 -78.57143,8.57143 C 261.42858,690 321.42858,620 321.42858,620 Z"
       id="path2016"
       inkscape:connector-curvature="0"
       sodipodi:nodetypes="cccsscsc" />
    <path
       style="fill:#e3dedb;stroke:none;stroke-width:1px;stroke-linecap:butt;stroke-linejoin:miter;stroke-opacity:1"
       d="m 400,662.85714 c 0,0 -47.14286,-62.85714 4.28571,-119.28571 l 59.28572,-62.85714 737.85717,-2.85715 h 92.1428 c -84.6897,95.5526 -152.2297,191.28709 -411.42855,278.57143 0,0 245.71425,-35 328.57145,-120 82.8571,-85 197.8571,-210 197.8571,-210 l -954.99997,-4.28571 -100,137.14285 c 0,0 -10,88.57143 46.42857,103.57143 z"
       id="path2024"
       inkscape:connector-curvature="0"
       sodipodi:nodetypes="ccccccscccc" />
    <path
       style="fill:#000000;stroke:#000000;stroke-width:1px;stroke-linecap:butt;stroke-linejoin:miter;stroke-opacity:1"
       d="m 292.85714,654.28571 160,-270 L 1470,375.71429 c 0,0 -151.4286,355.71429 -618.57143,382.85714 0,0 271.42853,11.42858 531.42853,-321.42857 l -935.71424,8.57143 z"
       id="path2018"
       inkscape:connector-curvature="0"
       sodipodi:nodetypes="ccccccc" />
    <path
       style="fill:#ffaaaa;stroke:none;stroke-width:1px;stroke-linecap:butt;stroke-linejoin:miter;stroke-opacity:1"
       d="m 352.85714,575.71428 c 0,0 1.42858,55.7143 24.28572,71.42858 L 400,662.85714 c 0,0 -47.14285,-3.57143 -86.42857,10 -34.56405,11.94031 -25.71429,-17.14286 39.28571,-97.14286 z"
       id="path2022"
       inkscape:connector-curvature="0"
       sodipodi:nodetypes="cscsc" />
    <circle
       style="fill:url(#radialGradient1980);stroke:none;stroke-width:11.67424965;stroke-miterlimit:4;stroke-dasharray:none;stroke-opacity:1;fill-opacity:1"
       id="path1421"
       cx="841.42859"
       cy="502.85712"
       r="194.28571" />
    <ellipse
       style="fill:#000000;fill-opacity:1;stroke:none;stroke-width:10;stroke-miterlimit:4;stroke-dasharray:none;stroke-opacity:1"
       id="path1984"
       cx="834.28571"
       cy="502.85715"
       rx="45.714287"
       ry="47.142857" />
    <ellipse
       style="fill:#ffffff;fill-opacity:1;stroke:none;stroke-width:5.4214015;stroke-miterlimit:4;stroke-dasharray:none;stroke-opacity:1"
       id="path1984-7-9"
       cx="730.49786"
       cy="578.41516"
       rx="24.78355"
       ry="25.558035" />
    <path
       style="fill:#000000;stroke:#000000;stroke-width:1px;stroke-linecap:butt;stroke-linejoin:miter;stroke-opacity:1"
       d="m 589.92909,381.98459 470.73111,-3.03046 2.0203,60.60916 -481.84279,3.03045 z"
       id="path2045"
       inkscape:connector-curvature="0" />
    <rect
       style="fill:#ffccaa;fill-opacity:1;stroke:none;stroke-width:10.8985939;stroke-miterlimit:4;stroke-dasharray:none;stroke-opacity:1"
       id="rect2026"
       width="722.85712"
       height="192.85715"
       x="412.85718"
       y="187.14285"
       rx="154.41315"
       ry="130" />
    <path
       style="fill:#ebb590;fill-opacity:1;stroke:none;stroke-width:1px;stroke-linecap:butt;stroke-linejoin:miter;stroke-opacity:1"
       d="m 274.28571,413.57143 c 0,0 46.42858,30 93.57143,19.28571 C 415,422.14286 552.14286,258.57143 827.85714,210.71428 1103.5714,162.85714 1461.4286,360 1461.4286,360 c 0,0 -237.794,-139.48007 -362.0797,-163.76578 C 975.06311,171.94851 888.57143,162.14286 724.28572,205 560,247.85714 274.28571,413.57143 274.28571,413.57143 Z"
       id="path2074"
       inkscape:connector-curvature="0"
       sodipodi:nodetypes="csscssc" />
    <path
       style="fill:#000080;stroke:#000000;stroke-width:1px;stroke-linecap:butt;stroke-linejoin:miter;stroke-opacity:1"
       d="m 167.68532,338.54803 c 0,0 16.16244,68.69038 92.93404,76.7716 76.77159,8.08122 719.22861,-418.203158 1032.37594,-248.49753 0,0 119.198,52.52793 177.7868,127.27922 0,0 -94.9543,-216.172644 -430.325,-228.294475 C 705.08648,53.685014 602.05091,233.49216 167.68532,338.54803 Z"
       id="path2049"
       inkscape:connector-curvature="0" />
    <path
       style="fill:#ebb590;stroke:none;stroke-width:1px;stroke-linecap:butt;stroke-linejoin:miter;stroke-opacity:1;fill-opacity:1"
       d="m 189.90868,748.66997 c 0,0 135.36044,-92.93404 292.94424,-12.12184 157.58379,80.81221 252.53813,70.71068 252.53813,70.71068 0,0 -106.86027,73.14266 -284.86302,-12.12182 -130.8691,-62.68716 -260.61935,-46.46702 -260.61935,-46.46702 z"
       id="path2051"
       inkscape:connector-curvature="0"
       sodipodi:nodetypes="cscsc" />
    <path
       style="fill:#0065d1;stroke:none;stroke-width:1px;stroke-linecap:butt;stroke-linejoin:miter;stroke-opacity:1;fill-opacity:1"
       d="m 224.25387,386.0252 c 0,0 27.27411,21.2132 64.64976,11.11168 37.37564,-10.10153 439.41636,-239.40615 693.9748,-273.75134 254.55847,-34.345187 407.09147,85.86297 407.09147,85.86297 0,0 -113.1371,-111.116784 -369.7158,-103.03556 -256.57878,8.08122 -668.72101,271.73103 -796.00023,279.81225 z"
       id="path2053"
       inkscape:connector-curvature="0" />
    <path
       style="fill:#000000;stroke:#000000;stroke-width:1px;stroke-linecap:butt;stroke-linejoin:miter;stroke-opacity:1;fill-opacity:0.5"
       d="m 659.28571,442.14286 c 0,0 -5.71428,2.14285 -9.28571,35.71428 l 382.8571,-0.71428 c 0,0 -1.4285,-28.57143 -10,-37.85715 z"
       id="path2055"
       inkscape:connector-curvature="0" />
    <path
       style="fill:#ffffff;stroke:none;stroke-width:1px;stroke-linecap:butt;stroke-linejoin:miter;stroke-opacity:1"
       d="m 968.57143,483.57143 c 0,0 -33.57143,-0.71429 -30,7.14285 3.57143,7.85714 39.28574,28.57143 39.28574,28.57143 0,0 40.71423,23.57143 44.99993,11.42858 5.7144,-24.28572 7.1429,-40 -5.7142,-45 -12.8571,-5 -48.57147,-2.14286 -48.57147,-2.14286 z"
       id="path2068"
       inkscape:connector-curvature="0"
       sodipodi:nodetypes="csccsc" />
    <path
       style="fill:#000000;stroke:none;stroke-width:1px;stroke-linecap:butt;stroke-linejoin:miter;stroke-opacity:1"
       d="m 452.85714,384.28571 v 0 0 0 l 3.47927,-4.8265 155.81603,1.26269 85.35789,-0.75761 -9.09137,22.98097 -235.56182,-18.65955"
       id="path2070"
       inkscape:connector-curvature="0" />
    <path
       style="fill:#ebb590;fill-opacity:1;stroke:none;stroke-width:1px;stroke-linecap:butt;stroke-linejoin:miter;stroke-opacity:1"
       d="M 673.28572,349.42857 1047.5714,343 c 0,0 -154.99997,-25.71429 -374.28568,6.42857 z"
       id="path2072"
       inkscape:connector-curvature="0" />
    <path
       style="fill:#000080;stroke:#000000;stroke-width:1px;stroke-linecap:butt;stroke-linejoin:miter;stroke-opacity:1"
       d="m 1551.4286,-1.428572 c 0,0 76.7594,174.722392 21.4286,555.714292 -50.0001,344.28571 -50.0001,344.28571 -50.0001,344.28571 0,0 148.5715,-310 137.1429,-641.42857 0,0 -17.1429,607.14285 -70,822.85714 l 341.2261,4.9421 V -2.7560797 Z"
       id="path2085"
       inkscape:connector-curvature="0"
       sodipodi:nodetypes="cscccccc" />
    <path
       style="fill:#0000ff;stroke:none;stroke-width:1px;stroke-linecap:butt;stroke-linejoin:miter;stroke-opacity:1"
       d="M 1636.4287,235.71428 C 1638.4888,287.21869 1630,473.57143 1605.7143,615 c 0,0 50,-148.57143 47.1428,-381.42857 0,0 -8.5714,-119.28572 -24.2857,-150.714288 0.2381,49.284998 5.6126,73.473988 7.8573,152.857138 z"
       id="path2087"
       inkscape:connector-curvature="0"
       sodipodi:nodetypes="ccccc" />
    <path
       style="fill:#0000ff;stroke:none;stroke-width:1px;stroke-linecap:butt;stroke-linejoin:miter;stroke-opacity:1"
       d="m 1721.2999,126.416 c 0,0 54.5483,347.49247 -14.1421,711.14739 0,0 82.8325,-143.44166 94.9544,-410.12193 0,0 20.203,266.68027 -16.1625,589.92904 10.1016,0 105.0559,-278.80206 88.8934,-612.1524 0,0 0,-244.45691 -70.7106,-377.79705 0.03,0.06073 27.2839,195.9891 4.0405,309.10668 0,0 -44.4467,-169.70563 -86.8731,-210.11173 z"
       id="path2089"
       inkscape:connector-curvature="0"
       sodipodi:nodetypes="cccccccc" />
    <path
       style="fill:#ffd5d5;stroke:none;stroke-width:1px;stroke-linecap:butt;stroke-linejoin:miter;stroke-opacity:1"
       d="m 371.23106,653.71563 c 0,0 -34.85027,-5.55584 -56.06347,5.55584 -21.2132,11.11168 7.57614,-36.87057 27.27412,-54.04316 0,0 -10.6066,32.32488 28.78935,48.48732 z"
       id="path2091"
       inkscape:connector-curvature="0" />
    <ellipse
       ry="25.558035"
       rx="24.78355"
       cy="578.41516"
       cx="730.49786"
       id="ellipse2093"
       style="fill:#ffffff;fill-opacity:1;stroke:none;stroke-width:5.4214015;stroke-miterlimit:4;stroke-dasharray:none;stroke-opacity:1;filter:url(#filter2959)" />
    <path
       sodipodi:nodetypes="csccsc"
       inkscape:connector-curvature="0"
       id="path2963"
       d="m 968.57143,483.57143 c 0,0 -33.57143,-0.71429 -30,7.14285 3.57143,7.85714 39.28574,28.57143 39.28574,28.57143 0,0 40.71423,23.57143 44.99993,11.42858 5.7144,-24.28572 7.1429,-40 -5.7142,-45 -12.8571,-5 -48.57147,-2.14286 -48.57147,-2.14286 z"
       style="fill:#ffffff;stroke:none;stroke-width:1px;stroke-linecap:butt;stroke-linejoin:miter;stroke-opacity:1;filter:url(#filter3133)" />
  </g>
</svg>
